<svg viewBox="0 0 100 100" xmlns="http://www.w3.org/2000/svg">
  <rect x="0" y="0" width="100" height="100" rx="22" fill="#1d3a6b"/>
  <!-- Logo-mark = het boek-/code-icoon uit de topbar (index.html) -->
  <g transform="translate(14 14) scale(3)" fill="none" stroke="#ffffff" stroke-width="2" stroke-linecap="round" stroke-linejoin="round">
    <path d="M12 3a3 3 0 0 0 -3 3v12a3 3 0 0 0 3 3"/>
    <path d="M6 3a3 3 0 0 1 3 3v12a3 3 0 0 1 -3 3"/>
    <path d="M13 7h7a1 1 0 0 1 1 1v8a1 1 0 0 1 -1 1h-7"/>
    <path d="M5 7h-1a1 1 0 0 0 -1 1v8a1 1 0 0 0 1 1h1"/>
    <path d="M17 12h.01"/>
    <path d="M13 12h.01"/>
  </g>
</svg>
